<svg width="16" height="12" fill="none" xmlns="http://www.w3.org/2000/svg"><path fill-rule="evenodd" clip-rule="evenodd" d="M1.634.355l2.114.288c.288.096.624.24.769.576L4.9 2.325h9.898c.336 0 .48.432.384.72l-1.681 4.228c-.097.289-.24.577-.577.577l-7.207-.048.096.673h6.294c.913 0 .961 1.2.24 1.441.24.192.385.432.385.769 0 .576-.48 1.009-1.01 1.009a.985.985 0 01-1.008-1.01c0-.287.144-.576.336-.768h-4.66c.192.192.336.48.336.769 0 .576-.48 1.009-1.01 1.009a.985.985 0 01-1.008-1.01c0-.287.096-.576.336-.768-.528-.096-.624-.72-.673-1.201L3.46 2.709c-.097-.48-.048-.673-.529-.72l-1.538-.29C.433 1.557.673.21 1.633.356z" fill="#007A70"/></svg>