<svg width="71" height="70" viewBox="0 0 71 70" fill="none" xmlns="http://www.w3.org/2000/svg">
  <path d="M70.9 37.1c0 3.4-5 6-6 9.1-1 3.2 1.5 8.3-.5 11-2 2.6-7.5 1.8-10.2 3.8-2.6 2-3.6 7.4-6.8 8.5-3 1-7-3-10.5-3-3.4 0-7.4 4-10.4 3-3.2-1-4.2-6.6-6.9-8.5-2.7-2-8.2-1.2-10.1-3.9-2-2.6.5-7.7-.6-10.9-1-3-5.9-5.7-5.9-9C3 33.6 8 31 9 28c1-3.2-1.5-8.2.5-10.9 2-2.7 7.5-2 10.1-3.9 2.7-1.9 3.7-7.4 6.9-8.4 3-1 7 2.8 10.4 2.8 3.5 0 7.5-3.8 10.5-2.8 3.2 1 4.2 6.5 6.8 8.4 2.7 2 8.3 1.2 10.2 4 1.9 2.6-.5 7.6.5 10.8 1 3.1 6 5.7 6 9.1z" fill="#454258"/>
  <path d="M69.2 34c0 3.4-5 6-6 9-1 3.3 1.5 8.3-.5 11-2 2.7-7.5 1.9-10.1 3.8-2.7 2-3.7 7.5-6.9 8.5-3 1-7-2.9-10.4-2.9-3.5 0-7.5 3.9-10.5 2.9-3.2-1-4.2-6.5-6.8-8.5-2.8-2-8.3-1.1-10.2-3.8-2-2.7.5-7.7-.6-11-1-3-5.9-5.6-5.9-9 0-3.5 5-6 6-9.2 1-3.2-1.5-8.2.5-10.8 2-2.8 7.5-2 10.2-4 2.6-1.9 3.6-7.4 6.8-8.4 3-1 7 2.9 10.5 2.9 3.4 0 7.4-3.8 10.4-2.9 3.2 1 4.2 6.5 6.9 8.5s8.2 1.1 10 3.9c2 2.6-.4 7.6.7 10.8 1 3.2 5.9 5.8 5.9 9.2z" fill="#F66"/>
  <path d="M29 40h-2.7l-4-7.1v7h-2.8V28.6h2.7l4 7v-7H29v11.3zm8.8-4.9h-4.3v2.7h5V40h-7.8V28.6h7.9v2h-5.1v2.5h4.3v2zm10.7.6l1.3-7.1h2.7l-2.4 11.3h-2.8l-1.6-6.5-1.5 6.5h-2.8L39 28.6h2.7l1.3 7 1.6-7h2.3l1.6 7z" fill="#fff"/>
  <path d="M69.2 34c0 3.4-5 6-6 9-1 3.3 1.5 8.3-.5 11-2 2.7-7.5 1.9-10.1 3.8-2.7 2-3.7 7.5-6.9 8.5-3 1-7-2.9-10.4-2.9-3.5 0-7.5 3.9-10.5 2.9-3.2-1-4.2-6.5-6.8-8.5-2.8-2-8.3-1.1-10.2-3.8-2-2.7.5-7.7-.6-11-1-3-5.9-5.6-5.9-9 0-3.5 5-6 6-9.2 1-3.2-1.5-8.2.5-10.8 2-2.8 7.5-2 10.2-4 2.6-1.9 3.6-7.4 6.8-8.4 3-1 7 2.9 10.5 2.9 3.4 0 7.4-3.8 10.4-2.9 3.2 1 4.2 6.5 6.9 8.5s8.2 1.1 10 3.9c2 2.6-.4 7.6.7 10.8 1 3.2 5.9 5.8 5.9 9.2z" stroke="#fff" stroke-width="2.3" stroke-miterlimit="10"/>
</svg>