<svg width="308" height="377" viewBox="0 0 308 377" fill="none" xmlns="http://www.w3.org/2000/svg">
<g filter="url(#filter0_d)">
<g clip-path="url(#clip0)">
<path d="M4.2863 152.584C-0.581068 164.323 53.5326 194.1 57.8274 190.091C61.5495 186.655 68.7074 172.912 68.7074 172.912C68.7074 172.912 79.3011 108.491 58.4 73.5606C58.4 73.5606 52.6737 75.2785 47.8063 81.2912C31.7726 101.047 9.15367 140.559 4.2863 152.584Z" fill="#E9EBEB"/>
<path d="M249.373 71.5564L201.558 54.9501C180.943 45.2153 153.743 46.9332 153.743 46.9332C153.743 46.9332 119.099 46.9332 107.646 55.2364L58.4001 73.5606C55.8232 99.9017 66.1306 130.824 68.9937 172.912C66.9895 261.097 69.2801 320.365 66.7032 348.71C65.8443 358.445 113.945 368.18 155.175 368.18C189.246 368.18 241.07 362.453 240.211 348.137C237.634 304.617 240.211 260.811 238.206 172.626C241.356 130.824 252.236 98.1838 249.373 71.5564Z" fill="#E9EBEB"/>
<g style="mix-blend-mode:multiply" opacity="0.2">
<path d="M185.524 70.1249C172.926 81.5775 134.274 82.1502 119.958 68.1207C115.091 63.2533 113.659 51.5144 113.659 51.5144H193.541C193.541 51.5144 196.691 60.1038 185.524 70.1249Z" fill="#E9EBEB"/>
</g>
<path d="M193.541 60.1039C193.541 60.1039 185.524 52.0871 153.457 52.0871C121.389 52.0871 113.372 60.1039 113.372 60.1039V51.5144C113.372 51.5144 124.252 45.2155 153.457 45.2155C182.375 45.2155 193.541 51.5144 193.541 51.5144V60.1039Z" fill="#E9EBEB"/>
<path d="M193.541 60.1039C193.541 60.1039 185.524 52.0871 153.457 52.0871C121.389 52.0871 113.372 60.1039 113.372 60.1039V51.5144C113.372 51.5144 124.252 45.2155 153.457 45.2155C182.375 45.2155 193.541 51.5144 193.541 51.5144V60.1039Z" fill="#E9EBEB"/>
<g style="mix-blend-mode:multiply" opacity="0.4">
<path d="M193.541 62.3942C193.541 62.3942 185.524 54.0911 153.457 54.0911C121.389 54.0911 113.372 62.3942 113.372 62.3942V53.5184C113.372 53.5184 124.252 46.9332 153.457 46.9332C182.375 46.9332 193.541 53.5184 193.541 53.5184V62.3942Z" fill="#E9EBEB"/>
</g>
<g style="mix-blend-mode:multiply" opacity="0.2">
<path d="M4.2863 152.584C-0.581067 164.323 53.5326 194.1 57.8274 190.091C61.5495 186.655 68.7074 172.912 68.7074 172.912C68.7074 172.912 69.28 106.201 58.4 73.5606C58.4 73.5606 66.7031 111.354 64.9853 138.268C68.9937 146.857 63.84 150.293 54.9642 141.99C50.9558 138.268 49.8105 141.704 54.1053 156.02C58.1137 169.476 50.6695 174.63 43.5116 173.199C24.0421 169.19 18.6021 144.567 17.1705 159.742C16.3116 164.895 7.72209 161.746 4.2863 152.584Z" fill="#E9EBEB"/>
</g>
<g style="mix-blend-mode:multiply" opacity="0.3">
<path d="M16.884 170.049C31.7724 181.502 54.964 192.954 57.8271 190.091C61.5492 186.655 68.7071 172.912 68.7071 172.912C68.7071 172.912 75.0061 152.011 64.6987 138.268C68.7071 146.857 68.4208 162.032 59.2587 153.729C55.2503 150.007 53.2461 150.007 57.5408 164.323C61.5492 177.779 52.6734 185.224 45.5155 183.792C26.0461 179.784 18.0292 155.16 20.8924 166.613C22.6103 171.767 8.5808 163.464 16.884 170.049Z" fill="#E9EBEB"/>
</g>
<path d="M302.914 152.584C307.781 164.323 253.954 194.386 249.373 190.091C245.651 186.655 238.493 172.912 238.493 172.912C238.493 172.912 228.472 106.487 249.659 71.5564C249.659 71.5564 255.099 75.2785 259.966 81.2911C275.428 101.047 298.046 140.558 302.914 152.584Z" fill="#E9EBEB"/>
<g style="mix-blend-mode:multiply" opacity="0.2">
<path d="M302.914 152.584C307.781 164.323 253.954 194.386 249.373 190.091C245.651 186.655 238.493 172.912 238.493 172.912C238.493 172.912 237.061 150.58 243.074 131.11C243.074 143.422 236.775 160.887 246.796 152.298C252.809 147.144 243.36 165.468 251.663 172.34C257.39 176.921 267.697 155.161 265.407 169.476C262.543 187.228 294.038 168.618 302.914 152.584Z" fill="#E9EBEB"/>
</g>
<g style="mix-blend-mode:multiply" opacity="0.3">
<path d="M288.312 171.481C273.423 182.361 252.236 192.668 249.373 190.091C245.651 186.655 238.493 172.912 238.493 172.912C238.493 172.912 239.352 164.609 243.933 162.891C247.655 161.46 241.356 176.634 249.659 183.792C255.385 188.373 263.402 161.173 263.402 175.775C263.402 184.079 278.863 177.78 288.312 171.481Z" fill="#E9EBEB"/>
</g>
<g style="mix-blend-mode:multiply" opacity="0.2">
<path d="M249.373 71.5565C241.928 118.512 235.343 178.352 226.467 177.493C193.827 174.63 208.716 184.079 215.874 192.954C223.318 201.83 227.04 211.851 226.181 215.001C218.451 241.342 234.198 294.024 232.766 296.314C229.903 300.609 219.31 296.601 212.152 291.447C199.84 282.285 210.147 308.912 227.326 326.091C243.646 342.411 219.31 382.496 170.063 335.826C160.042 326.378 161.187 358.445 141.718 356.441C122.535 354.723 135.992 307.767 129.693 305.763C120.817 302.9 114.518 337.83 103.352 334.967C89.6085 331.531 87.6042 311.489 94.7621 292.592C107.074 259.952 117.381 212.997 112.514 219.868C70.7116 279.422 83.3095 223.018 92.7579 211.565C121.39 176.634 102.779 175.489 96.48 175.489C77.0106 175.489 74.1474 167.472 71.2842 140.272C68.9937 116.508 58.4 73.5607 58.4 73.5607C55.8232 99.9018 68.4211 112.786 68.9937 172.912C66.9895 261.098 69.28 320.365 66.7032 348.71C65.8442 358.445 113.945 368.18 155.175 368.18C189.246 368.18 241.07 362.453 240.211 348.138C237.634 304.618 240.211 260.811 238.206 172.626C241.356 130.824 250.518 107.632 249.373 71.5565Z" fill="#E9EBEB"/>
</g>
<g style="mix-blend-mode:multiply" opacity="0.3">
<path d="M238.779 187.228C222.173 183.219 244.219 194.386 230.762 234.184C226.467 247.068 239.352 252.508 235.057 307.767C234.77 312.921 227.899 308.053 220.741 302.899C208.429 293.737 225.322 313.493 234.198 331.245C244.505 352.146 209.002 375.624 173.785 355.868C162.046 348.996 159.183 367.321 139.427 365.316C120.244 363.598 126.829 330.386 123.966 329.241C115.09 325.805 123.394 363.598 101.92 360.163C94.4757 359.017 83.0231 347.565 84.4547 327.523C87.0315 292.592 89.0357 273.409 83.3094 298.318C75.0062 335.253 70.7115 289.729 76.4378 279.135C81.3052 270.259 92.7578 254.798 87.3178 255.657C71.8568 258.521 72.1431 227.598 75.8652 211.565C78.7283 198.681 72.4294 208.129 71.2841 195.817C70.4252 186.942 73.861 158.883 66.9894 154.874C67.562 160.601 68.421 166.899 68.7073 173.198C66.7031 261.384 68.9936 320.651 66.4168 348.996C65.5578 358.731 113.659 368.466 154.888 368.466C188.96 368.466 240.783 362.74 239.924 348.424C237.92 307.481 240.21 265.965 238.779 187.228Z" fill="#E9EBEB"/>
</g>
<path opacity="0.3" d="M201.558 55.2365C200.127 64.9712 189.247 84.727 153.743 84.727C117.954 84.727 107.933 66.4028 106.501 56.0954C107.647 55.5228 111.941 52.087 113.945 51.5144C113.373 53.5186 119.099 77.2828 154.03 77.2828C188.96 77.2828 194.114 57.2407 194.114 51.5144C195.832 52.3733 199.268 53.8049 201.558 55.2365Z" fill="#E9EBEB"/>
<path d="M201.558 54.9502C200.127 63.826 189.247 82.7228 153.743 82.7228C117.954 82.7228 107.933 65.5438 106.501 55.8091C107.647 55.2365 111.941 52.087 113.945 51.5144C113.373 53.2323 119.099 75.5649 154.03 75.5649C188.96 75.5649 194.114 56.9544 194.114 51.5144C195.832 52.3733 199.268 53.8049 201.558 54.9502Z" fill="#E9EBEB"/>
</g>
</g>
<line x1="154.063" y1="47.5971" x2="154.063" y2="368.262" stroke="#646E73" stroke-width="2.28467"/>
<line x1="146.998" y1="367.12" x2="160.706" y2="367.12" stroke="#0E1E25" stroke-width="2.28467"/>
<line x1="146.998" y1="46.4548" x2="160.706" y2="46.4548" stroke="#0E1E25" stroke-width="2.28467"/>
<rect x="142.278" y="240.999" width="65.1387" height="23.5693" rx="6.854" transform="rotate(-90 142.278 240.999)" fill="white"/>
<path d="M157.579 227.654L157.579 232.668L148.295 232.668L148.295 235.026L159.563 235.026L159.563 227.654L157.579 227.654ZM157.134 220.564C157.72 220.806 158.048 221.423 158.048 222.321C158.048 223.508 157.228 224.258 155.916 224.289L155.799 224.289L155.799 218.378L155.12 218.378C152.402 218.378 150.778 219.877 150.778 222.415C150.778 224.976 152.511 226.554 155.307 226.554C158.087 226.554 159.743 225.007 159.743 222.384C159.743 220.275 158.735 218.784 157.134 218.448L157.134 220.564ZM152.472 222.407C152.472 221.345 153.206 220.658 154.386 220.611L154.386 224.281C153.23 224.203 152.472 223.461 152.472 222.407ZM159.563 216.512L159.563 214.239L154.589 214.239C153.425 214.239 152.675 213.591 152.675 212.537C152.675 211.459 153.308 210.952 154.518 210.952L159.563 210.952L159.563 208.679L154.003 208.679C151.949 208.679 150.778 209.71 150.778 211.623C150.778 212.896 151.379 213.771 152.347 214.169L152.347 214.31L150.965 214.31L150.965 216.512L159.563 216.512ZM162.819 202.675C162.819 200.074 161.554 198.427 159.547 198.427L150.965 198.427L150.965 200.629L152.34 200.629L152.34 200.769C151.403 201.23 150.825 202.222 150.825 203.385C150.825 205.572 152.527 206.915 155.19 206.915C157.767 206.915 159.438 205.58 159.438 203.432C159.438 202.222 158.946 201.316 158.04 200.84L158.04 200.699L159.641 200.699C160.633 200.699 161.211 201.41 161.211 202.628C161.211 203.612 160.867 204.252 160.32 204.369L160.32 206.618C161.828 206.478 162.819 204.963 162.819 202.675ZM157.697 202.643C157.697 203.877 156.728 204.58 155.182 204.58C153.636 204.58 152.668 203.869 152.668 202.643C152.668 201.417 153.636 200.676 155.182 200.676C156.728 200.676 157.697 201.41 157.697 202.643ZM148.912 195.499L151.043 195.499L151.043 196.842L152.769 196.842L152.769 195.499L157.244 195.499C158.915 195.499 159.594 194.671 159.594 192.578C159.594 192.141 159.547 191.719 159.493 191.438L157.814 191.438C157.837 191.657 157.853 191.813 157.853 192.11C157.853 192.883 157.494 193.226 156.72 193.226L152.769 193.226L152.769 191.438L151.043 191.438L151.043 193.226L148.912 193.226L148.912 195.499ZM159.563 189.463L159.563 187.19L154.612 187.19C153.472 187.19 152.699 186.534 152.699 185.394C152.699 184.364 153.324 183.809 154.542 183.809L159.563 183.809L159.563 181.537L154.026 181.537C151.965 181.537 150.801 182.638 150.801 184.488C150.801 185.754 151.395 186.691 152.371 187.089L152.371 187.229L147.678 187.229L147.678 189.463L159.563 189.463Z" fill="#0E1E25"/>
<path d="M147.842 58.3871L154.063 52.1665L160.283 58.3871" stroke="black" stroke-width="2.28467"/>
<path d="M147.842 356.33L154.063 362.55L160.283 356.33" stroke="black" stroke-width="2.28467"/>
<line x1="237.984" y1="124.014" x2="69.3194" y2="124.014" stroke="#646E73" stroke-width="2.28467"/>
<line x1="70.4618" y1="116.949" x2="70.4618" y2="130.657" stroke="#0E1E25" stroke-width="2.28467"/>
<line x1="239.127" y1="116.949" x2="239.127" y2="130.657" stroke="#0E1E25" stroke-width="2.28467"/>
<rect x="125.582" y="112.229" width="57.1387" height="23.5693" rx="6.854" fill="white"/>
<path d="M136.653 129.802C139.37 129.802 141.354 128.155 141.549 125.75H139.253C139.027 126.991 138.012 127.788 136.661 127.788C134.88 127.788 133.779 126.288 133.779 123.876C133.779 121.463 134.88 119.963 136.653 119.963C137.996 119.963 139.019 120.822 139.245 122.126H141.541C141.369 119.706 139.323 117.956 136.653 117.956C133.381 117.956 131.366 120.213 131.366 123.876C131.366 127.538 133.389 129.802 136.653 129.802ZM143.571 129.514H145.843V124.563C145.843 123.423 146.499 122.65 147.64 122.65C148.67 122.65 149.225 123.274 149.225 124.492V129.514H151.497V123.977C151.497 121.915 150.396 120.752 148.545 120.752C147.28 120.752 146.343 121.345 145.945 122.322H145.804V117.628H143.571V129.514ZM159.274 127.085C159.032 127.671 158.415 127.999 157.517 127.999C156.33 127.999 155.581 127.179 155.55 125.867V125.75H161.461V125.07C161.461 122.353 159.962 120.729 157.424 120.729C154.862 120.729 153.285 122.462 153.285 125.258C153.285 128.038 154.831 129.693 157.455 129.693C159.563 129.693 161.055 128.686 161.391 127.085H159.274ZM157.432 122.423C158.494 122.423 159.181 123.157 159.228 124.336H155.557C155.635 123.181 156.377 122.423 157.432 122.423ZM163.132 123.423C163.132 124.742 163.944 125.531 165.615 125.898L167.177 126.249C167.934 126.421 168.262 126.687 168.262 127.124C168.262 127.694 167.653 128.085 166.771 128.085C165.865 128.085 165.31 127.733 165.139 127.14H162.921C163.077 128.764 164.451 129.693 166.724 129.693C168.981 129.693 170.519 128.584 170.519 126.882C170.519 125.601 169.769 124.898 168.098 124.531L166.482 124.18C165.685 124 165.318 123.727 165.318 123.29C165.318 122.728 165.919 122.345 166.732 122.345C167.575 122.345 168.098 122.696 168.215 123.266H170.316C170.191 121.642 168.902 120.729 166.716 120.729C164.568 120.729 163.132 121.814 163.132 123.423ZM172.986 118.862V120.994H171.643V122.72H172.986V127.194C172.986 128.865 173.814 129.545 175.907 129.545C176.344 129.545 176.766 129.498 177.047 129.443V127.764C176.828 127.788 176.672 127.803 176.375 127.803C175.602 127.803 175.258 127.444 175.258 126.671V122.72H177.047V120.994H175.258V118.862H172.986Z" fill="#0E1E25"/>
<path d="M227.194 117.793L233.415 124.013L227.194 130.234" stroke="black" stroke-width="2.28467"/>
<path d="M81.2517 117.793L75.0311 124.013L81.2517 130.234" stroke="black" stroke-width="2.28467"/>
<line x1="259.28" y1="12.0648" x2="47.6151" y2="12.0648" stroke="#646E73" stroke-width="2.28467"/>
<line x1="48.7574" y1="5" x2="48.7574" y2="18.708" stroke="#0E1E25" stroke-width="2.28467"/>
<line x1="260.422" y1="5" x2="260.422" y2="18.708" stroke="#0E1E25" stroke-width="2.28467"/>
<rect x="107.878" y="0.280182" width="91.1387" height="23.5693" rx="6.854" fill="white"/>
<path d="M113.514 14.4491C113.6 16.5341 115.341 17.8538 118.028 17.8538C120.855 17.8538 122.596 16.4638 122.596 14.2148C122.596 12.4734 121.62 11.4973 119.355 11.0132L117.997 10.7242C116.677 10.4353 116.138 10.0214 116.138 9.31082C116.138 8.42841 116.919 7.85836 118.098 7.85836C119.238 7.85836 120.066 8.45965 120.175 9.3811H122.393C122.323 7.38983 120.566 6.00765 118.082 6.00765C115.482 6.00765 113.772 7.39763 113.772 9.49823C113.772 11.2084 114.779 12.2626 116.833 12.6999L118.301 13.0201C119.683 13.3246 120.245 13.7541 120.245 14.4959C120.245 15.3705 119.379 15.9874 118.153 15.9874C116.825 15.9874 115.904 15.3862 115.794 14.4491H113.514ZM124.681 17.5648H126.953V12.614C126.953 11.4739 127.609 10.7008 128.749 10.7008C129.78 10.7008 130.334 11.3255 130.334 12.5437V17.5648H132.607V12.0283C132.607 9.96677 131.506 8.80324 129.655 8.80324C128.39 8.80324 127.453 9.39672 127.054 10.3728H126.914V5.67967H124.681V17.5648ZM138.635 17.7445C141.282 17.7445 142.875 16.0733 142.875 13.2621C142.875 10.4743 141.258 8.77981 138.635 8.77981C136.011 8.77981 134.394 10.4822 134.394 13.2621C134.394 16.0655 135.987 17.7445 138.635 17.7445ZM138.635 15.9484C137.417 15.9484 136.729 14.9645 136.729 13.2621C136.729 11.5754 137.424 10.5837 138.635 10.5837C139.837 10.5837 140.54 11.5754 140.54 13.2621C140.54 14.9645 139.845 15.9484 138.635 15.9484ZM152.526 8.96723H150.254V13.9337C150.254 15.1128 149.645 15.8391 148.513 15.8391C147.466 15.8391 146.927 15.2222 146.927 14.004V8.96723H144.655V14.5662C144.655 16.5653 145.811 17.7445 147.669 17.7445C148.973 17.7445 149.778 17.1822 150.184 16.1827H150.324V17.5648H152.526V8.96723ZM154.884 17.5648H157.157V5.67967H154.884V17.5648ZM162.607 17.6976C163.802 17.6976 164.778 17.1432 165.238 16.2139H165.379V17.5648H167.581V5.67967H165.309V10.3416H165.176C164.731 9.38891 163.77 8.82667 162.607 8.82667C160.444 8.82667 159.101 10.5212 159.101 13.2543C159.101 15.9953 160.436 17.6976 162.607 17.6976ZM163.38 10.6696C164.59 10.6696 165.332 11.6613 165.332 13.2699C165.332 14.8786 164.598 15.8625 163.38 15.8625C162.162 15.8625 161.436 14.8864 161.436 13.2621C161.436 11.6457 162.17 10.6696 163.38 10.6696ZM175.507 15.1363C175.265 15.7219 174.648 16.0499 173.75 16.0499C172.563 16.0499 171.813 15.23 171.782 13.9181V13.8009H177.693V13.1216C177.693 10.4041 176.194 8.77981 173.656 8.77981C171.095 8.77981 169.517 10.5134 169.517 13.309C169.517 16.089 171.064 17.7445 173.687 17.7445C175.796 17.7445 177.287 16.7371 177.623 15.1363H175.507ZM173.664 10.4743C174.726 10.4743 175.413 11.2084 175.46 12.3875H171.79C171.868 11.2318 172.61 10.4743 173.664 10.4743ZM179.559 17.5648H181.832V12.7546C181.832 11.5442 182.683 10.8023 183.924 10.8023C184.291 10.8023 184.822 10.8648 185.002 10.9273V8.92818C184.807 8.86571 184.424 8.82667 184.112 8.82667C183.019 8.82667 182.128 9.47481 181.902 10.3338H181.761V8.96723H179.559V17.5648ZM186.126 11.4739C186.126 12.7936 186.938 13.5823 188.609 13.9493L190.171 14.3007C190.929 14.4725 191.257 14.738 191.257 15.1753C191.257 15.7454 190.648 16.1358 189.765 16.1358C188.859 16.1358 188.305 15.7844 188.133 15.1909H185.915C186.071 16.8152 187.446 17.7445 189.718 17.7445C191.975 17.7445 193.513 16.6356 193.513 14.9332C193.513 13.6526 192.764 12.9498 191.093 12.5828L189.476 12.2314C188.68 12.0518 188.313 11.7784 188.313 11.3411C188.313 10.7789 188.914 10.3963 189.726 10.3963C190.569 10.3963 191.093 10.7477 191.21 11.3177H193.31C193.185 9.69346 191.897 8.77981 189.71 8.77981C187.563 8.77981 186.126 9.86525 186.126 11.4739Z" fill="#0E1E25"/>
<path d="M248.49 5.84421L254.711 12.0648L248.49 18.2854" stroke="black" stroke-width="2.28467"/>
<path d="M59.5474 5.84421L53.3268 12.0648L59.5474 18.2854" stroke="black" stroke-width="2.28467"/>
<defs>
<filter id="filter0_d" x="0.0178957" y="45.2152" width="307.164" height="331.215" filterUnits="userSpaceOnUse" color-interpolation-filters="sRGB">
<feFlood flood-opacity="0" result="BackgroundImageFix"/>
<feColorMatrix in="SourceAlpha" type="matrix" values="0 0 0 0 0 0 0 0 0 0 0 0 0 0 0 0 0 0 127 0"/>
<feOffset dy="3.9821"/>
<feGaussianBlur stdDeviation="1.99105"/>
<feColorMatrix type="matrix" values="0 0 0 0 0.054902 0 0 0 0 0.117647 0 0 0 0 0.145098 0 0 0 0.41 0"/>
<feBlend mode="normal" in2="BackgroundImageFix" result="effect1_dropShadow"/>
<feBlend mode="normal" in="SourceGraphic" in2="effect1_dropShadow" result="shape"/>
</filter>
<clipPath id="clip0">
<rect width="299.2" height="323.251" fill="white" transform="translate(4 45.2152)"/>
</clipPath>
</defs>
</svg>
